<svg width="27" height="28" viewBox="0 0 27 28" fill="none" xmlns="http://www.w3.org/2000/svg">
<g filter="url(#filter0_d)">
<path d="M6 8L5.29289 8.70711L4.58579 8L5.29289 7.29289L6 8ZM11 20C10.4477 20 10 19.5523 10 19C10 18.4477 10.4477 18 11 18L11 20ZM10.2929 13.7071L5.29289 8.70711L6.70711 7.29289L11.7071 12.2929L10.2929 13.7071ZM5.29289 7.29289L10.2929 2.29289L11.7071 3.70711L6.70711 8.70711L5.29289 7.29289ZM6 7L16.5 7L16.5 9L6 9L6 7ZM16.5 20L11 20L11 18L16.5 18L16.5 20ZM23 13.5C23 17.0898 20.0898 20 16.5 20L16.5 18C18.9853 18 21 15.9853 21 13.5L23 13.5ZM16.5 7C20.0898 7 23 9.91015 23 13.5L21 13.5C21 11.0147 18.9853 9 16.5 9L16.5 7Z" fill="#0D114F"/>
</g>
<defs>
<filter id="filter0_d" x="-2" y="0" width="32" height="32" filterUnits="userSpaceOnUse" color-interpolation-filters="sRGB">
<feFlood flood-opacity="0" result="BackgroundImageFix"/>
<feColorMatrix in="SourceAlpha" type="matrix" values="0 0 0 0 0 0 0 0 0 0 0 0 0 0 0 0 0 0 127 0"/>
<feOffset dy="4"/>
<feGaussianBlur stdDeviation="2"/>
<feColorMatrix type="matrix" values="0 0 0 0 0 0 0 0 0 0 0 0 0 0 0 0 0 0 0.25 0"/>
<feBlend mode="normal" in2="BackgroundImageFix" result="effect1_dropShadow"/>
<feBlend mode="normal" in="SourceGraphic" in2="effect1_dropShadow" result="shape"/>
</filter>
</defs>
</svg>
